PathFileType	4	(X/Y/Z)	/home/abdul/Desktop/myosuite/custom_workspace/IK/output/S5_12_3.trc
DataRate	CameraRate	NumFrames	NumMarkers	Units	OrigDataRate	OrigDataStartFrame	OrigNumFrames
200.0	200.0	50	3	mm	200.0	1013	1350
Frame#	Time	V_Shoulder			V_Elbow			V_Wrist		
		X1	Y1	Z1	X2	Y2	Z2	X3	Y3	Z3

1013	5.06	3.1200469865932345	734.1019678019578	251.94515027985096	-139.3648274737503	563.1467920110865	33.658668080583155	-75.2100344568778	330.37389312642597	70.72545059355132
1014	5.065	3.0961905684509294	734.1538999331339	251.94578523621055	-139.5343582820931	563.3257851857786	33.63464531302153	-76.73669958840802	330.11733102564926	71.02211007277171
1015	5.07	3.070797142625746	734.2071644309649	251.94632174470735	-139.69901242041541	563.4911152681752	33.617948210131274	-78.27066350345295	329.84477412750925	71.30036729363093
1016	5.075	3.043859652240999	734.2617028264963	251.94674760155874	-139.8587400815406	563.6425771977345	33.60870159426222	-79.81014257958404	329.556585960231	71.55942662015542
1017	5.08	3.0153731335708436	734.3174538951033	251.94705015167756	-140.0135020702179	563.7800003455918	33.60700785203898	-81.35332866130474	329.2531691058432	71.79852823872022
1018	5.085	2.9853347441338607	734.3743537591553	251.94721631082652	-140.16326947208773	563.9032489391352	33.612946352380824	-82.89839350777974	328.934964021522	72.01695027441812
1019	5.09	2.9537437865566787	734.4323359962851	251.94723258871514	-140.308023288472	564.0122223630642	33.626572953246715	-84.4434933334986	328.60244772952285	72.21401078988472
1020	5.095	2.9206017281317345	734.4913317530022	251.9470851128763	-140.44775403979912	564.1068553357436	33.64791960005119	-85.98677342649788	328.2561323806219	72.38906965880071
1021	5.1	2.885912216002037	734.5512698633664	251.94675965315523	-140.58246134063558	564.1871179602401	33.67699401825019	-87.52637282834938	327.8965636965817	72.54153030689218
1022	5.105	2.8496810879146266	734.6120769724254	251.94624164664006	-140.71215344943613	564.2530156500111	33.713779502131175	-89.06042905977368	327.52431929772746	72.67084131388779
1023	5.11	2.81191637849347	734.6736776641065	251.94551622286068	-140.83684679624542	564.3045889298014	33.75823480136137	-90.58708287546001	327.1400069222595	72.77649787056004
1024	5.115	2.7726283209915485	734.7359945932303	251.94456822908145	-140.95656549168152	564.3419131128853	33.81029410635526	-92.1044830314666	326.74426254443347	72.85804308567447
1025	5.12	2.731829344491144	734.7989486213088	251.94338225551132	-141.0713408206061	564.3650978563692	33.86986713302007	-93.61079104844248	326.3377483992107	72.91506913839126
1026	5.125	2.689534066530547	734.862458955777	251.94194266025727	-141.18121072393936	564.3742865968345	33.93683930692953	-95.10418595385244	325.9211509214119	72.94721827240159
1027	5.13	2.645759281144791	734.9264432922915	251.9402335938462	-141.28621927210412	564.3696558691627	34.011072046464704	-96.58286898640247	325.49517860779747	72.95418362883343
1028	5.135	2.600523942317399	734.9908179597296	251.9382390231442	-141.38641613358922	564.3514145119174	34.092403143949674	-98.04506824595367	325.06055981084194	72.93570991572332
1029	5.14	2.553849142849643	735.0554980675043	251.93594275450383	-141.48185604210343	564.3198027631843	34.18064724330201	-99.48904327237852	324.61804047326916	72.89159391261518
1030	5.145	2.5057580886632658	735.1203976548173	251.93332845597536	-141.5725982657477	564.2750912512654	34.275596412217546	-100.91308953705241	324.1683818126678	72.82168480961303
1031	5.15	2.4562760685622274	735.1854298414524	251.93037967842233	-141.6587060815698	564.2175798851015	34.377020806417995	-102.315542830987	323.71235796570534	72.72588438097313
1032	5.155	2.4054304194885496	735.2505069797257	251.92707987538793	-141.7402462587761	564.1475966497377	34.484669423012875	-103.69478353399614	323.25075360161213	72.60414699407067
1033	5.16	2.353250487316986	735.3155408071929	251.92341242156598	-141.81728855376676	564.065496312568	34.5982709395656	-105.04924074974043	322.78436151470555	72.45647945531098
1034	5.165	2.29976758324276	735.3804425997245	251.91936062973704	-141.88990522003064	563.9716590464718	34.71753463501222	-106.37739629201862	322.31398020577444	72.28294069527068
1035	5.17	2.2450149358262426	735.44512332456	251.91490776604064	-141.95817053578529	563.8664889763064	34.84215138816098	-107.67778850826197	321.84041146213895	72.08364129604749
1036	5.175	2.189027638767972	735.5094937929484	251.91003706346282	-142.02216035207985	563.7504126555269	34.97179474910599	-108.94901592683797	321.36445794614605	71.85874286446239
1037	5.18	2.131842594496927	735.5734648120015	251.90473173342892	-142.08195166389172	563.6238774799788	35.10612207852035	-110.18974071547848	320.88692080175804	71.60845725539309
1038	5.185	2.073498453664434	735.6369473353769	251.89897497540315	-142.13762220654644	563.4873500461372	35.24477574945545	-111.39869193891256	320.4085972887327	71.33304565011812
1039	5.19	2.014035550645508	735.6998526124322	251.89274998440843	-142.18925007957353	563.3413144612587	35.387384405966536	-112.57466860460048	319.93027845369244	71.03281749511497
1040	5.195	1.9534958351586955	735.7620923354889	251.88603995639096	-142.2369133998806	563.1862706130587	35.53356427261104	-113.7165424863286	319.45274684712837	70.70812930727774
1041	5.2	1.8919228001247186	735.8235787848629	251.87882809137022	-142.2806899858893	563.0227324066329	35.68292050862765	-114.82326071633298	318.97677429508883	70.35938335200214
1042	5.205	1.8293614058933383	735.884224971329	251.87109759432528	-142.3206570740236	562.8512259764013	35.83504860040221	-115.89384813756335	318.5031197339639	69.98702620102037
1043	5.21	1.765858000976765	735.943944775701	251.86283167378573	-142.35689106868537	562.672287880876	35.98953578566174	-116.92740940867994	318.03252711639993	69.59154717725937
1044	5.215	1.7014602394367782	736.0026530852228	251.85401353810866	-142.38946732658616	562.4864632880272	36.14596250271212	-117.92313085538251	317.56572339595834	69.17347669433741
1045	5.22	1.6362169950813101	736.0602659264847	251.84462638943833	-142.418459976037	562.2943041589596	36.3039038579474	-118.88028206270323	317.1034165976837	68.73338449860714
1046	5.225	1.5701782726346858	736.1167005945932	251.83465341536044	-142.44394177152793	562.0963674374998	36.462931104810785	-119.79821720394537	316.6462939812626	68.27187782189819
1047	5.23	1.5033951160539	736.1718757783441	251.82407777827913	-142.46598398365774	561.8932132531537	36.622613127378884	-120.67637610301331	316.19502030294177	67.78959945330604
1048	5.235	1.4359195141712693	736.2257116811628	251.81288260256008	-142.4846563242058	561.6854031447036	36.782517921770896	-121.51428502795116	315.7502361818373	67.2872257385191
1049	5.24	1.367804303851485	736.2781301376026	251.80105095949898	-142.500026905872	561.473498311494	36.942214068653904	-122.3115572145814	315.3125565757085	66.76546451527236
1050	5.245	1.299103070858459	736.3290547252028	251.78856585019022	-142.51216223595065	561.2580578991958	37.10127219022196	-123.06789312020743	314.882569370692	66.22505299356378
1051	5.25	1.229870048634443	736.3784108715378	251.77541018638718	-142.52112724295094	561.0396373265489	37.25926638517092	-123.78308040840739	314.46083408890087	65.66675558927065
1052	5.255	1.1601600152006457	736.4261259563026	251.76156676945934	-142.5269853349321	560.8187866592598	37.41577563537005	-124.45699366699891	314.047880717191	65.09136171975888
1053	5.26	1.0900281883948886	736.472129408305	251.74701826756822	-142.52979848808764	560.5960490368827	37.570385178145706	-125.08959386228733	313.64420865978747	64.49968356999
1054	5.265	1.0195301196678452	736.5163527972567	251.73174719119834	-142.5296273638911	560.3719591581311	37.722687838338146	-125.68092753372136	313.2502858168505	63.89255383750134
1055	5.27	0.9487215866649309	736.5587299202733	251.71573586719379	-142.5265314529084	560.1470418296758	37.87228531457024	-126.23112573406354	312.86654779044665	63.27082346446595
1056	5.275	0.8776584848260097	736.599196883018	251.69896641146502	-142.5205692431885	559.9218105830575	38.01878941447194	-126.74040272113504	312.4933972187829	62.635359364832716
1057	5.28	0.8063967182397165	736.6376921754451	251.68142070054296	-142.51179841096933	559.6967663639109	38.16182323393698	-127.20905440811028	312.13120323895777	61.98704215430847
1058	5.285	0.7349920899933218	736.674156742115	251.66308034217204	-142.50027603127634	559.4723962972437	38.301022275844204	-127.63745658021219	311.78030107789135	61.32676389067261
1059	5.29	0.6635001922626507	736.7085340470802	251.64392664514278	-142.48605880585458	559.2491725320544	38.43603550405389	-128.02606288649181	311.44099177051703	60.65542583161613
1060	5.295	0.5919762963896456	736.7407701333556	251.62394058857822	-142.46920330575512	559.0275511681018	38.566526328886034	-128.3754026161603	311.11354200375683	59.97393621697365
1061	5.3	0.5204752431976396	736.770813677008	251.60310279089654	-142.44976622580123	558.8079712671672	38.69217352070036	-128.6860782696764	310.79818408425785	59.28320808187151
1062	5.305	0.4490513337963131	736.7986160359178	251.58139347868214	-142.4278046480858	558.5908539506743	38.81267204862405	-128.9587629354731	310.49511602734617	58.58415710695186
